<svg width="86" height="86" viewBox="0 0 86 86" fill="none" xmlns="http://www.w3.org/2000/svg">
<path d="M69.2509 49.4448L67.1513 52.0722C65.7481 53.8281 58.7483 62.8571 58.7483 68.1775C58.7483 74.3002 63.4596 79.2811 69.2507 79.2811C75.0418 79.2811 79.7533 74.3002 79.7533 68.1775C79.7533 62.8571 72.7535 53.8281 71.3502 52.0722L69.2509 49.4448ZM69.2509 73.9061C66.4236 73.9061 64.1235 71.3362 64.1235 68.1775C64.1235 66.2187 66.7245 61.8144 69.2517 58.2338C71.7785 61.8115 74.3785 66.2138 74.3785 68.1775C74.3785 71.3362 72.0781 73.9061 69.2509 73.9061Z" fill="black"/>
<path d="M20.6045 8.64893L16.1473 20.8952L5.05447 16.3273L3.00793 21.2983L14.3074 25.951L4.51831 52.8438C3.78953 54.8534 3.88759 57.0699 4.79099 59.0072C5.69438 60.9445 7.32933 62.4444 9.33716 63.1778L40.3642 74.4707C41.3591 74.8328 42.4156 74.9954 43.4734 74.9493C44.5312 74.9031 45.5696 74.649 46.5292 74.2016C47.4888 73.7541 48.3508 73.122 49.0661 72.3414C49.7814 71.5608 50.336 70.6469 50.6981 69.652L66.7843 25.4572L20.6045 8.64893ZM45.6487 67.8136C45.5279 68.1452 45.3431 68.4499 45.1047 68.7101C44.8662 68.9703 44.5789 69.181 44.259 69.3302C43.9391 69.4793 43.593 69.564 43.2404 69.5794C42.8878 69.5948 42.5356 69.5406 42.2039 69.4198L11.1761 58.127C10.5063 57.8832 9.9608 57.3833 9.65957 56.7374C9.35833 56.0914 9.32604 55.3522 9.5698 54.6824L12.3546 47.0311H53.2124L45.6487 67.8136ZM14.3109 41.6561L19.2818 27.9984L25.3846 30.5114C25.5705 31.7093 26.1481 32.8118 27.0271 33.6466C27.9061 34.4813 29.037 35.0013 30.2429 35.1251C31.4487 35.2489 32.6617 34.9696 33.692 34.3309C34.7223 33.6921 35.5119 32.73 35.9373 31.5949C36.3627 30.4597 36.4 29.2156 36.0433 28.0571C35.6866 26.8985 34.956 25.8908 33.9658 25.1916C32.9755 24.4923 31.7815 24.1409 30.5704 24.1923C29.3592 24.2437 28.1993 24.6951 27.2719 25.4757L21.1217 22.9432L23.8169 15.5383L59.8949 28.6696L55.0937 41.8609V41.6561H14.3109Z" fill="black"/>
</svg>
