<svg width="88" height="88" viewBox="0 0 88 88" fill="none" xmlns="http://www.w3.org/2000/svg">
<rect width="88" height="88" fill="white"/>
<path d="M78.5156 24.4443H9.48447C8.26565 24.4443 7.09676 24.9285 6.23492 25.7903C5.37309 26.6522 4.88892 27.8211 4.88892 29.0399V73.6266C4.88892 74.8454 5.37309 76.0143 6.23492 76.8761C7.09676 77.7379 8.26565 78.2221 9.48447 78.2221H78.5156C79.7344 78.2221 80.9033 77.7379 81.7651 76.8761C82.627 76.0143 83.1111 74.8454 83.1111 73.6266V29.0399C83.1111 27.8211 82.627 26.6522 81.7651 25.7903C80.9033 24.9285 79.7344 24.4443 78.5156 24.4443ZM78.2223 73.3332H9.7778V29.3332H78.2223V73.3332Z" fill="black"/>
<path d="M73.6754 7.33312C73.6754 6.68481 73.4179 6.06306 72.9595 5.60463C72.5011 5.14621 71.8793 4.88867 71.231 4.88867H17.4532C16.8049 4.88867 16.1832 5.14621 15.7248 5.60463C15.2663 6.06306 15.0088 6.68481 15.0088 7.33312V9.77756H73.6754V7.33312Z" fill="black"/>
<path d="M78.5155 17.1109C78.5155 16.4626 78.2579 15.8409 77.7995 15.3825C77.3411 14.924 76.7194 14.6665 76.071 14.6665H12.5155C11.8672 14.6665 11.2454 14.924 10.787 15.3825C10.3286 15.8409 10.071 16.4626 10.071 17.1109V19.5554H78.5155V17.1109Z" fill="black"/>
<path d="M31.3378 65.4865C32.0152 65.9258 32.8037 66.1632 33.6111 66.1709C34.193 66.1696 34.7679 66.0446 35.2978 65.8043L59.18 55.1465C59.9183 54.8257 60.5467 54.2962 60.9882 53.6231C61.4296 52.95 61.6648 52.1625 61.6648 51.3576C61.6648 50.5526 61.4296 49.7652 60.9882 49.0921C60.5467 48.419 59.9183 47.8895 59.18 47.5687L35.2978 36.9109C34.6658 36.6302 33.9738 36.5117 33.2844 36.5661C32.595 36.6205 31.9301 36.846 31.35 37.2222C30.7698 37.5985 30.2927 38.1136 29.9619 38.7209C29.6311 39.3281 29.4571 40.0083 29.4556 40.6998V62.0154C29.4568 62.7047 29.6295 63.3828 29.9581 63.9888C30.2866 64.5947 30.7608 65.1094 31.3378 65.4865ZM32.8778 40.6998C32.877 40.577 32.9082 40.4562 32.9682 40.349C33.0281 40.2419 33.1149 40.1522 33.22 40.0887C33.348 40.0533 33.4832 40.0533 33.6111 40.0887C33.7077 40.0667 33.8079 40.0667 33.9045 40.0887L57.7867 50.722C57.9214 50.7771 58.0359 50.8724 58.1147 50.9948C58.1934 51.1173 58.2325 51.261 58.2267 51.4065C58.2309 51.5486 58.1909 51.6884 58.112 51.8067C58.0332 51.925 57.9195 52.0158 57.7867 52.0665L33.9045 62.7243C33.8004 62.7843 33.6824 62.816 33.5622 62.816C33.4421 62.816 33.3241 62.7843 33.22 62.7243C33.118 62.6574 33.0336 62.567 32.9741 62.4606C32.9145 62.3542 32.8815 62.235 32.8778 62.1131V40.6998Z" fill="black"/>
</svg>
