<svg width="245" height="182" viewBox="0 0 245 182" fill="none" xmlns="http://www.w3.org/2000/svg">
<path d="M245 159.942H0V160.064H245V159.942Z" fill="#EBEBEB"/>
<path d="M220.451 167.801H204.222V167.923H220.451V167.801Z" fill="#EBEBEB"/>
<path d="M162.298 169.129H158.04V169.251H162.298V169.129Z" fill="#EBEBEB"/>
<path d="M203.732 163.269H194.329V163.391H203.732V163.269Z" fill="#EBEBEB"/>
<path d="M46.8687 164.089H25.7056V164.211H46.8687V164.089Z" fill="#EBEBEB"/>
<path d="M54.3361 164.089H51.2344V164.211H54.3361V164.089Z" fill="#EBEBEB"/>
<path d="M110.323 166.15H64.4199V166.272H110.323V166.15Z" fill="#EBEBEB"/>
<path d="M116.135 138.157H21.521C19.9775 138.157 18.7231 136.907 18.7231 135.368V2.78903C18.7231 1.25042 19.9775 0 21.521 0H116.14C117.684 0 118.938 1.25042 118.938 2.78903V135.368C118.933 136.907 117.679 138.157 116.135 138.157ZM21.521 0.122112C20.0461 0.122112 18.8456 1.31881 18.8456 2.78903V135.368C18.8456 136.838 20.0461 138.035 21.521 138.035H116.14C117.615 138.035 118.815 136.838 118.815 135.368V2.78903C118.815 1.31881 117.615 0.122112 116.14 0.122112H21.521Z" fill="#EBEBEB"/>
<path d="M222.122 138.157H127.503C125.959 138.157 124.705 136.907 124.705 135.368V2.78903C124.705 1.25042 125.959 0 127.503 0H222.122C223.665 0 224.92 1.25042 224.92 2.78903V135.368C224.92 136.907 223.665 138.157 222.122 138.157ZM127.503 0.122112C126.028 0.122112 124.828 1.31881 124.828 2.78903V135.368C124.828 136.838 126.028 138.035 127.503 138.035H222.122C223.597 138.035 224.797 136.838 224.797 135.368V2.78903C224.797 1.31881 223.597 0.122112 222.122 0.122112H127.503Z" fill="#EBEBEB"/>
<path d="M155.104 111.122H213.973C213.973 113.276 212.273 115.044 210.112 115.141C203.786 115.425 194.055 116.426 190.968 119.914C185.215 126.42 185.774 149.264 192.663 154.559C194.824 156.22 201.12 159.512 201.12 159.512H167.952C167.952 159.512 173.837 156.151 175.885 154.559C182.736 149.225 182.936 126.39 177.159 119.914C174.195 116.592 165.071 115.518 158.951 115.181C156.79 115.063 155.104 113.276 155.104 111.122Z" fill="#F5F5F5"/>
<path d="M206.682 115.356C200.704 115.835 193.535 117.012 190.968 119.914C190.208 120.773 189.561 121.921 189.022 123.274H179.134C178.58 121.921 177.924 120.773 177.159 119.914C174.582 117.027 167.355 115.84 161.489 115.356H206.682Z" fill="#E6E6E6"/>
<path d="M180.183 111.151L180.981 102.031H169.378L168.58 111.151H180.183Z" fill="#EBEBEB"/>
<path d="M180.183 111.151L180.982 102.031H181.609L180.81 111.151H180.183Z" fill="#E0E0E0"/>
<path d="M179.08 110.223L179.717 102.959H170.481L169.844 110.223H179.08Z" fill="#F0F0F0"/>
<path d="M178.375 109.622L178.904 103.555H171.191L170.657 109.622H178.375Z" fill="#FAFAFA"/>
<path d="M183.946 111.122H195.603L194.309 96.3853H182.652L183.946 111.122Z" fill="#E6E6E6"/>
<path d="M183.946 111.122H183.392L182.099 96.3853H182.652L183.946 111.122Z" fill="#E0E0E0"/>
<path d="M185.004 109.622H194.285L193.256 97.8896H183.975L185.004 109.622Z" fill="#F0F0F0"/>
<path d="M185.686 108.655H193.437L192.575 98.8569H184.823L185.686 108.655Z" fill="#FAFAFA"/>
<path d="M189.601 103.263C189.076 103.785 188.219 103.785 187.695 103.263C187.17 102.74 187.17 101.885 187.695 101.363C188.219 100.84 189.076 100.84 189.601 101.363C190.125 101.885 190.125 102.74 189.601 103.263Z" fill="#EBEBEB"/>
<path d="M189.027 104.909C189.414 104.523 190.036 104.523 190.424 104.909C191.046 105.529 190.605 106.589 189.728 106.589C188.846 106.589 188.405 105.529 189.027 104.909Z" fill="#F0F0F0"/>
<path d="M40.0445 94.3188H95.0176L95.0176 33.7124L40.0445 33.7124L40.0445 94.3188Z" fill="#E0E0E0"/>
<path d="M38.2888 94.3188H95.3052L95.3052 33.7124L38.2888 33.7124L38.2888 94.3188Z" fill="#F0F0F0"/>
<path d="M40.7024 91.5381H92.9854V35.6501L40.7024 35.6501L40.7024 91.5381Z" fill="white"/>
<path d="M40.6993 91.5381H42.2134L42.2134 35.6501H40.6993L40.6993 91.5381Z" fill="#E0E0E0"/>
<path d="M42.0547 75.8354V77.3447H93.1225V75.8354H42.0547Z" fill="#E0E0E0"/>
<path d="M40.6995 75.8394H93.7959V73.3092H40.6995V75.8394Z" fill="#F0F0F0"/>
<path d="M185.41 44.092C185.41 44.092 185.9 40.8682 183.544 38.8021C181.187 36.736 181.392 35.5051 182.069 35.3439C182.745 35.1827 183.362 37.2488 184.401 37.8203C184.401 37.8203 184.435 34.875 183.382 33.7906C182.328 32.7063 181.775 29.9124 182.779 29.8635C183.779 29.8147 183.887 31.5242 184.092 32.7356C184.298 33.9469 185.415 35.6516 185.415 35.6516C185.415 35.6516 185.631 33.0189 186.312 31.9297C186.993 30.8453 185.18 28.364 185.876 27.2796C186.577 26.1953 187.821 28.2614 187.713 30.5864C187.611 32.9114 186.057 35.3927 186.42 37.8203C186.42 37.8203 187.106 36.1156 187.723 35.9593C188.341 35.803 188.963 34.6747 189.375 34.2595C189.791 33.8395 190.306 35.2902 189.375 36.6334C188.444 37.9766 186.057 41.5716 186.42 44.473L185.41 44.092Z" fill="#E6E6E6"/>
<path d="M183.999 42.627L183.225 47.4577C182.985 48.9475 184.141 50.3004 185.66 50.3004H186.483C187.998 50.3004 189.154 48.9475 188.919 47.4577L188.145 42.627H183.999Z" fill="#F5F5F5"/>
<path d="M195.676 48.5176H141.09V51.3115H195.676V48.5176Z" fill="#E6E6E6"/>
<path d="M146.01 38.2114H143.604V48.5176H146.01V38.2114Z" fill="#F0F0F0"/>
<path d="M157.637 38.2114H155.231V48.5176H157.637V38.2114Z" fill="#F0F0F0"/>
<path d="M170.843 37.9595L168.472 38.3667L170.227 48.5235L172.598 48.1162L170.843 37.9595Z" fill="#F0F0F0"/>
<path d="M148.989 39.5688H146.583V48.5172H148.989V39.5688Z" fill="#F0F0F0"/>
<path d="M154.516 39.5688H152.11V48.5172H154.516V39.5688Z" fill="#F0F0F0"/>
<path d="M168.472 39.5688H166.066V48.5172H168.472V39.5688Z" fill="#F0F0F0"/>
<path d="M160.796 39.2586L158.448 39.7788L160.395 48.5142L162.743 47.994L160.796 39.2586Z" fill="#F0F0F0"/>
<path d="M151.067 37.6982H149.866V48.5173H151.067V37.6982Z" fill="#F0F0F0"/>
<path d="M165.37 37.6982H164.169V48.5173H165.37V37.6982Z" fill="#F0F0F0"/>
<path d="M141.096 72.1807H195.682V69.3867H141.096V72.1807Z" fill="#E6E6E6"/>
<path d="M190.762 69.3857H193.168V59.0795H190.762V69.3857Z" fill="#F0F0F0"/>
<path d="M179.133 69.3857H181.539V59.0795H179.133V69.3857Z" fill="#F0F0F0"/>
<path d="M164.17 68.9849L166.541 69.3921L168.297 59.2353L165.926 58.8281L164.17 68.9849Z" fill="#F0F0F0"/>
<path d="M187.782 69.3857H190.188V60.4374H187.782V69.3857Z" fill="#F0F0F0"/>
<path d="M182.254 69.3857H184.66V60.4374H182.254V69.3857Z" fill="#F0F0F0"/>
<path d="M168.299 69.3857H170.705V60.4374H168.299V69.3857Z" fill="#F0F0F0"/>
<path d="M174.026 68.866L176.375 69.3862L178.322 60.6509L175.973 60.1307L174.026 68.866Z" fill="#F0F0F0"/>
<path d="M185.703 69.3867H186.904V58.5676H185.703V69.3867Z" fill="#F0F0F0"/>
<path d="M171.402 69.3867H172.603V58.5676H171.402V69.3867Z" fill="#F0F0F0"/>
<path d="M146.334 69.293H158.05V61.2287H146.334V69.293Z" fill="#F5F5F5"/>
<path d="M122.5 182C174.971 182 217.506 179.524 217.506 176.471C217.506 173.417 174.971 170.941 122.5 170.941C70.0298 170.941 27.4941 173.417 27.4941 176.471C27.4941 179.524 70.0298 182 122.5 182Z" fill="#F5F5F5"/>
<path d="M162.91 164.255C162.91 164.255 160.485 158.975 163.258 153.773C166.032 148.571 166.835 147.345 165.066 146.28C163.298 145.215 162.489 150.441 162.489 150.441C162.489 150.441 160.999 146.846 162.229 143.08C163.459 139.315 164.233 133.185 162.553 132.525C160.872 131.866 162.234 140.174 160.774 143.007C160.774 143.007 159.549 139.857 159.348 136.833C159.147 133.81 159.461 128.984 158.133 127.743C156.805 126.503 155.957 127.362 157.261 134.034C158.564 140.707 158.554 146.133 158.554 146.133C158.554 146.133 155.673 137.38 153.743 137.126C151.812 136.872 151.812 139.705 153.468 142.162C155.124 144.619 158.314 149.025 158.839 151.291C158.839 151.291 155.678 144.702 152.836 146.724C149.994 148.742 155.311 152.722 157.682 154.158C160.054 155.594 161.7 164.606 161.7 164.606L162.91 164.255Z" fill="#C83722"/>
<path opacity="0.2" d="M162.91 164.255C162.91 164.255 160.485 158.975 163.258 153.773C166.032 148.571 166.835 147.345 165.066 146.28C163.298 145.215 162.489 150.441 162.489 150.441C162.489 150.441 160.999 146.846 162.229 143.08C163.459 139.315 164.233 133.185 162.553 132.525C160.872 131.866 162.234 140.174 160.774 143.007C160.774 143.007 159.549 139.857 159.348 136.833C159.147 133.81 159.461 128.984 158.133 127.743C156.805 126.503 155.957 127.362 157.261 134.034C158.564 140.707 158.554 146.133 158.554 146.133C158.554 146.133 155.673 137.38 153.743 137.126C151.812 136.872 151.812 139.705 153.468 142.162C155.124 144.619 158.314 149.025 158.839 151.291C158.839 151.291 155.678 144.702 152.836 146.724C149.994 148.742 155.311 152.722 157.682 154.158C160.054 155.594 161.7 164.606 161.7 164.606L162.91 164.255Z" fill="black"/>
<path d="M160.994 166.419C160.994 166.419 163.356 161.104 160.524 155.941C157.692 150.779 156.869 149.567 158.623 148.473C160.377 147.379 161.249 152.596 161.249 152.596C161.249 152.596 162.695 148.976 161.421 145.23C160.147 141.483 159.299 135.363 160.97 134.684C162.641 134 161.382 142.328 162.876 145.137C162.876 145.137 164.062 141.967 164.228 138.939C164.395 135.91 164.023 131.089 165.331 129.829C166.644 128.569 167.502 129.414 166.282 136.106C165.057 142.797 165.135 148.219 165.135 148.219C165.135 148.219 167.908 139.422 169.839 139.139C171.77 138.856 171.799 141.689 170.177 144.17C168.55 146.651 165.414 151.106 164.919 153.377C164.919 153.377 168.001 146.744 170.868 148.722C173.734 150.7 168.467 154.754 166.11 156.23C163.758 157.705 162.219 166.736 162.219 166.736L160.994 166.419Z" fill="#C83722"/>
<path d="M171.892 162.633H152.371L153.953 176.559H170.314L171.892 162.633Z" fill="#263238"/>
<path opacity="0.2" d="M210.235 117.926H107.06C106.389 117.926 105.845 117.384 105.845 116.715V25.3656C105.845 24.6965 106.389 24.1543 107.06 24.1543H210.235C210.906 24.1543 211.45 24.6965 211.45 25.3656V116.72C211.45 117.384 210.906 117.926 210.235 117.926Z" fill="black"/>
<path d="M206.241 116.192H103.067C102.395 116.192 101.852 115.65 101.852 114.981V23.6313C101.852 22.9621 102.395 22.4199 103.067 22.4199H206.241C206.912 22.4199 207.456 22.9621 207.456 23.6313V114.985C207.456 115.655 206.912 116.192 206.241 116.192Z" fill="#C83722"/>
<path opacity="0.6" d="M101.852 30.7676V114.981C101.852 115.65 102.302 116.192 102.856 116.192H206.447C207.006 116.192 207.451 115.65 207.451 114.981V30.7676H101.852Z" fill="white"/>
<path d="M206.202 35.7349H103.101V110.111H206.202V35.7349Z" fill="white"/>
<path opacity="0.6" d="M204.007 28.2083C204.862 28.2083 205.555 27.3751 205.555 26.3473C205.555 25.3195 204.862 24.4863 204.007 24.4863C203.152 24.4863 202.458 25.3195 202.458 26.3473C202.458 27.3751 203.152 28.2083 204.007 28.2083Z" fill="white"/>
<path opacity="0.6" d="M198.935 28.2083C199.79 28.2083 200.484 27.3751 200.484 26.3473C200.484 25.3195 199.79 24.4863 198.935 24.4863C198.08 24.4863 197.387 25.3195 197.387 26.3473C197.387 27.3751 198.08 28.2083 198.935 28.2083Z" fill="white"/>
<path opacity="0.6" d="M195.407 26.3473C195.407 27.373 194.716 28.2083 193.859 28.2083C193.006 28.2083 192.311 27.3779 192.311 26.3473C192.311 25.3216 193.001 24.4863 193.859 24.4863C194.716 24.4912 195.407 25.3216 195.407 26.3473Z" fill="white"/>
<path d="M125.068 44.4146V63.6007L120.119 69.55H109.157V44.4146H125.068Z" fill="#C83722"/>
<path opacity="0.7" d="M125.068 44.4146V63.6007L120.119 69.55H109.157V44.4146H125.068Z" fill="white"/>
<path opacity="0.3" d="M125.068 63.6011L120.119 69.5503V63.6011H125.068Z" fill="#C83722"/>
<path opacity="0.3" d="M122.603 48.0391H111.627V48.7571H122.603V48.0391Z" fill="#C83722"/>
<path opacity="0.3" d="M122.603 50.7695H111.627V51.4876H122.603V50.7695Z" fill="#C83722"/>
<path opacity="0.3" d="M122.603 53.5H111.627V54.2229H122.603V53.5Z" fill="#C83722"/>
<path opacity="0.3" d="M122.603 56.2305H111.627V56.9534H122.603V56.2305Z" fill="#C83722"/>
<path opacity="0.3" d="M119.766 58.9609H111.627V59.6838H119.766V58.9609Z" fill="#C83722"/>
<path d="M150.303 44.4146V63.6007L145.354 69.55H134.393V44.4146H150.303Z" fill="#C83722"/>
<path opacity="0.7" d="M150.303 44.4146V63.6007L145.354 69.55H134.393V44.4146H150.303Z" fill="white"/>
<path opacity="0.3" d="M150.303 63.6011L145.354 69.5503V63.6011H150.303Z" fill="#C83722"/>
<path opacity="0.3" d="M147.833 48.0391H136.857V48.7571H147.833V48.0391Z" fill="#C83722"/>
<path opacity="0.3" d="M147.833 50.7695H136.857V51.4876H147.833V50.7695Z" fill="#C83722"/>
<path opacity="0.3" d="M147.833 53.5H136.857V54.2229H147.833V53.5Z" fill="#C83722"/>
<path opacity="0.3" d="M147.833 56.2305H136.857V56.9534H147.833V56.2305Z" fill="#C83722"/>
<path opacity="0.3" d="M144.996 58.9609H136.857V59.6838H144.996V58.9609Z" fill="#C83722"/>
<path d="M175.538 44.4146V63.6007L170.589 69.55H159.627V44.4146H175.538Z" fill="#C83722"/>
<path opacity="0.7" d="M175.538 44.4146V63.6007L170.589 69.55H159.627V44.4146H175.538Z" fill="white"/>
<path opacity="0.3" d="M175.538 63.6011L170.589 69.5503V63.6011H175.538Z" fill="#C83722"/>
<path opacity="0.3" d="M173.068 48.0391H162.092V48.7571H173.068V48.0391Z" fill="#C83722"/>
<path opacity="0.3" d="M173.068 50.7695H162.092V51.4876H173.068V50.7695Z" fill="#C83722"/>
<path opacity="0.3" d="M173.068 53.5H162.092V54.2229H173.068V53.5Z" fill="#C83722"/>
<path opacity="0.3" d="M173.068 56.2305H162.092V56.9534H173.068V56.2305Z" fill="#C83722"/>
<path opacity="0.3" d="M170.231 58.9609H162.092V59.6838H170.231V58.9609Z" fill="#C83722"/>
<path d="M200.773 44.4146V63.6007L195.819 69.55H184.862V44.4146H200.773Z" fill="#C83722"/>
<path opacity="0.7" d="M200.773 44.4146V63.6007L195.819 69.55H184.862V44.4146H200.773Z" fill="white"/>
<path opacity="0.3" d="M200.772 63.6011L195.818 69.5503V63.6011H200.772Z" fill="#C83722"/>
<path opacity="0.3" d="M198.303 48.0391H187.327V48.7571H198.303V48.0391Z" fill="#C83722"/>
<path opacity="0.3" d="M198.303 50.7695H187.327V51.4876H198.303V50.7695Z" fill="#C83722"/>
<path opacity="0.3" d="M198.303 53.5H187.327V54.2229H198.303V53.5Z" fill="#C83722"/>
<path opacity="0.3" d="M198.303 56.2305H187.327V56.9534H198.303V56.2305Z" fill="#C83722"/>
<path opacity="0.3" d="M195.466 58.9609H187.327V59.6838H195.466V58.9609Z" fill="#C83722"/>
<path d="M125.068 77.6289V96.8151L120.119 102.764H109.157V77.6289H125.068Z" fill="#C83722"/>
<path opacity="0.7" d="M125.068 77.6289V96.8151L120.119 102.764H109.157V77.6289H125.068Z" fill="white"/>
<path opacity="0.3" d="M125.068 96.8154L120.119 102.765V96.8154H125.068Z" fill="#C83722"/>
<path opacity="0.3" d="M122.603 81.2534H111.627V81.9714H122.603V81.2534Z" fill="#C83722"/>
<path opacity="0.3" d="M122.603 83.9839H111.627V84.7019H122.603V83.9839Z" fill="#C83722"/>
<path opacity="0.3" d="M122.603 86.7144H111.627V87.4372H122.603V86.7144Z" fill="#C83722"/>
<path opacity="0.3" d="M122.603 89.4448H111.627V90.1677H122.603V89.4448Z" fill="#C83722"/>
<path opacity="0.3" d="M119.766 92.1753H111.627V92.8982H119.766V92.1753Z" fill="#C83722"/>
<path d="M150.303 77.6289V96.8151L145.354 102.764H134.393V77.6289H150.303Z" fill="#C83722"/>
<path opacity="0.7" d="M150.303 77.6289V96.8151L145.354 102.764H134.393V77.6289H150.303Z" fill="white"/>
<path opacity="0.3" d="M150.303 96.8154L145.354 102.765V96.8154H150.303Z" fill="#C83722"/>
<path opacity="0.3" d="M147.833 81.2534H136.857V81.9714H147.833V81.2534Z" fill="#C83722"/>
<path opacity="0.3" d="M147.833 83.9839H136.857V84.7019H147.833V83.9839Z" fill="#C83722"/>
<path opacity="0.3" d="M147.833 86.7144H136.857V87.4372H147.833V86.7144Z" fill="#C83722"/>
<path opacity="0.3" d="M147.833 89.4448H136.857V90.1677H147.833V89.4448Z" fill="#C83722"/>
<path opacity="0.3" d="M144.996 92.1753H136.857V92.8982H144.996V92.1753Z" fill="#C83722"/>
<path d="M175.538 77.6289V96.8151L170.589 102.764H159.627V77.6289H175.538Z" fill="#C83722"/>
<path opacity="0.7" d="M175.538 77.6289V96.8151L170.589 102.764H159.627V77.6289H175.538Z" fill="white"/>
<path opacity="0.3" d="M175.538 96.8154L170.589 102.765V96.8154H175.538Z" fill="#C83722"/>
<path opacity="0.3" d="M173.068 81.2534H162.092V81.9714H173.068V81.2534Z" fill="#C83722"/>
<path opacity="0.3" d="M173.068 83.9839H162.092V84.7019H173.068V83.9839Z" fill="#C83722"/>
<path opacity="0.3" d="M173.068 86.7144H162.092V87.4372H173.068V86.7144Z" fill="#C83722"/>
<path opacity="0.3" d="M173.068 89.4448H162.092V90.1677H173.068V89.4448Z" fill="#C83722"/>
<path opacity="0.3" d="M170.231 92.1753H162.092V92.8982H170.231V92.1753Z" fill="#C83722"/>
<path d="M200.773 77.6289V96.8151L195.819 102.764H184.862V77.6289H200.773Z" fill="#C83722"/>
<path opacity="0.7" d="M200.773 77.6289V96.8151L195.819 102.764H184.862V77.6289H200.773Z" fill="white"/>
<path opacity="0.3" d="M200.772 96.8154L195.818 102.765V96.8154H200.772Z" fill="#C83722"/>
<path opacity="0.3" d="M198.303 81.2534H187.327V81.9714H198.303V81.2534Z" fill="#C83722"/>
<path opacity="0.3" d="M198.303 83.9839H187.327V84.7019H198.303V83.9839Z" fill="#C83722"/>
<path opacity="0.3" d="M198.303 86.7144H187.327V87.4372H198.303V86.7144Z" fill="#C83722"/>
<path opacity="0.3" d="M198.303 89.4448H187.327V90.1677H198.303V89.4448Z" fill="#C83722"/>
<path opacity="0.3" d="M195.466 92.1753H187.327V92.8982H195.466V92.1753Z" fill="#C83722"/>
<path opacity="0.1" d="M161.68 84.9605H136.288C135.112 84.9605 134.157 84.008 134.157 82.8357V63.8645C134.157 62.6922 135.112 61.7397 136.288 61.7397H161.68C162.856 61.7397 163.812 62.6922 163.812 63.8645V82.8357C163.812 84.008 162.856 84.9605 161.68 84.9605Z" fill="black"/>
<g opacity="0.1">
<path opacity="0.1" d="M159.862 60.6604H156.922V57.4904C156.922 53.3239 153.522 49.939 149.347 49.939C145.167 49.939 141.772 53.3288 141.772 57.4904V60.6604H138.832V57.4904C138.832 51.712 143.55 47.0083 149.347 47.0083C155.144 47.0083 159.862 51.712 159.862 57.4904V60.6604Z" fill="black"/>
</g>
<path d="M149.43 83.9834H124.038C122.862 83.9834 121.907 83.031 121.907 81.8587V62.8874C121.907 61.7152 122.862 60.7627 124.038 60.7627H149.43C150.606 60.7627 151.562 61.7152 151.562 62.8874V81.8587C151.562 83.031 150.606 83.9834 149.43 83.9834Z" fill="#263238"/>
<path opacity="0.2" d="M144.065 83.9834H124.033C122.857 83.9834 121.902 83.031 121.902 81.8587V62.8874C121.902 61.7152 122.857 60.7627 124.033 60.7627H144.065C145.241 60.7627 146.196 61.7152 146.196 62.8874V81.8587C146.196 83.031 145.241 83.9834 144.065 83.9834Z" fill="white"/>
<path d="M135.538 69.4766C135.538 67.8745 134.558 66.5801 133.353 66.5801C132.147 66.5801 131.167 67.8793 131.167 69.4766C131.167 70.6928 131.736 71.7332 132.535 72.163L132.133 78.2198H134.573L134.171 72.163C134.97 71.7332 135.538 70.6928 135.538 69.4766Z" fill="#263238"/>
<path d="M147.612 59.6833H144.672V56.5133C144.672 52.3469 141.272 48.9619 137.097 48.9619C132.917 48.9619 129.522 52.3517 129.522 56.5133V59.6833H126.582V56.5133C126.582 50.735 131.3 46.0312 137.097 46.0312C142.894 46.0312 147.612 50.735 147.612 56.5133V59.6833Z" fill="#263238"/>
<g opacity="0.4">
<path opacity="0.4" d="M147.612 59.6833H144.672V56.5133C144.672 52.3469 141.272 48.9619 137.097 48.9619C132.917 48.9619 129.522 52.3517 129.522 56.5133V59.6833H126.582V56.5133C126.582 50.735 131.3 46.0312 137.097 46.0312C142.894 46.0312 147.612 50.735 147.612 56.5133V59.6833Z" fill="white"/>
</g>
<path opacity="0.2" d="M147.612 56.5133V59.6833H145.618V56.1519C145.618 50.862 141.316 46.5783 136.009 46.5783C134.005 46.5783 132.148 47.1986 130.624 48.2634C132.413 46.8665 134.662 46.0312 137.097 46.0312C142.894 46.0313 147.612 50.7301 147.612 56.5133Z" fill="white"/>
<path d="M106.066 112.675H94.188V112.22H96.8732C97.2456 112.22 97.5641 111.952 97.6278 111.585L98.8283 104.464L99.0635 103.062H103.13L106.771 111.624C106.977 112.118 106.609 112.675 106.066 112.675Z" fill="#C83722"/>
<path opacity="0.4" d="M106.066 112.675H94.188V112.22H96.8732C97.2456 112.22 97.5641 111.952 97.6278 111.585L98.8283 104.464L99.0635 103.062H103.13L106.771 111.624C106.977 112.118 106.609 112.675 106.066 112.675Z" fill="white"/>
<path opacity="0.2" d="M106.08 112.215H96.8682C97.2406 112.215 97.5591 111.947 97.6228 111.581L98.8233 104.459H103.086L106.33 111.839C106.404 112.015 106.276 112.215 106.08 112.215Z" fill="black"/>
<path d="M112.45 105.685H88.6898C88.4546 105.685 88.2978 105.495 88.3419 105.255L91.718 87.4611C91.7621 87.2266 91.9924 87.0312 92.2276 87.0312H115.988C116.223 87.0312 116.38 87.2217 116.336 87.4611L112.959 105.255C112.915 105.49 112.69 105.685 112.45 105.685Z" fill="#C83722"/>
<path opacity="0.4" d="M112.45 105.685H88.6898C88.4546 105.685 88.2978 105.495 88.3419 105.255L91.718 87.4611C91.7621 87.2266 91.9924 87.0312 92.2276 87.0312H115.988C116.223 87.0312 116.38 87.2217 116.336 87.4611L112.959 105.255C112.915 105.49 112.69 105.685 112.45 105.685Z" fill="white"/>
<path d="M111.96 105.685H88.2001C87.9649 105.685 87.8081 105.495 87.8522 105.255L91.2283 87.4611C91.2724 87.2266 91.5027 87.0312 91.7379 87.0312H115.498C115.733 87.0312 115.89 87.2217 115.846 87.4611L112.47 105.255C112.426 105.49 112.2 105.685 111.96 105.685Z" fill="#263238"/>
<path d="M111.647 104.591H88.9302L92.0564 88.1206H114.768L111.647 104.591Z" fill="#C83722"/>
<path d="M72.0547 112.676V112.119L81.203 110.277H99.088C99.7495 110.277 100.288 110.815 100.288 111.474C100.288 112.133 99.7495 112.671 99.088 112.671L72.0547 112.676Z" fill="#C83722"/>
<path opacity="0.4" d="M100.288 111.474C100.288 111.801 100.156 112.104 99.9406 112.319C99.7201 112.533 99.4212 112.67 99.088 112.67H72.0547V112.118L81.203 110.272H99.088C99.7544 110.272 100.288 110.809 100.288 111.474Z" fill="white"/>
<path opacity="0.4" d="M100.288 111.474C100.288 111.801 100.156 112.104 99.9405 112.319C99.72 112.533 99.4211 112.67 99.0879 112.67H88.2246V112.118L97.3729 110.272H99.0879C99.7543 110.272 100.288 110.809 100.288 111.474Z" fill="white"/>
<path d="M106.825 176.559H109.275L113.67 115.527H110.421L106.825 176.559Z" fill="#263238"/>
<path opacity="0.1" d="M106.825 176.56H109.275L113.454 118.562L113.67 115.631H110.421L110.245 118.562L106.825 176.56Z" fill="white"/>
<path opacity="0.2" d="M110.245 118.414H113.455L113.67 115.63H110.422L110.245 118.414Z" fill="black"/>
<path d="M88.8666 176.559H91.3117L91.7135 115.527H88.4648L88.8666 176.559Z" fill="#263238"/>
<path opacity="0.1" d="M88.4648 115.631L88.5285 125.473L88.8617 176.56H91.3117L91.6449 125.473L91.7135 115.631H88.4648Z" fill="white"/>
<path opacity="0.2" d="M88.4648 115.631L88.5285 125.585H91.6449L91.7135 115.631H88.4648Z" fill="black"/>
<path d="M62.8818 176.559H65.3269L69.7271 115.527H66.4784L62.8818 176.559Z" fill="#263238"/>
<path opacity="0.1" d="M62.8818 176.56H65.3269L69.5115 118.562L69.7271 115.631H66.4784L66.302 118.562L62.8818 176.56Z" fill="white"/>
<path opacity="0.2" d="M66.3022 118.414H69.5118L69.7274 115.63H66.4786L66.3022 118.414Z" fill="black"/>
<path d="M134.824 176.559H137.269L133.672 115.527H130.423L134.824 176.559Z" fill="#263238"/>
<path opacity="0.1" d="M130.428 115.631L130.644 118.562L134.824 176.56H137.269L133.848 118.562L133.672 115.631H130.428Z" fill="white"/>
<path opacity="0.2" d="M133.672 115.631H130.428L130.644 118.415H133.848L133.672 115.631Z" fill="black"/>
<path d="M64.9642 117.056H135.186C135.769 117.056 136.244 116.582 136.244 116.001V113.999H63.9058V116.001C63.9058 116.587 64.3811 117.056 64.9642 117.056Z" fill="#C83722"/>
<path opacity="0.4" d="M64.9642 117.056H135.186C135.769 117.056 136.244 116.582 136.244 116.001V113.999H63.9058V116.001C63.9058 116.587 64.3811 117.056 64.9642 117.056Z" fill="white"/>
<path opacity="0.2" d="M63.9015 115.527L136.245 115.527V113.998L63.9015 113.998V115.527Z" fill="black"/>
<path d="M62.3868 114.399H137.764C138.239 114.399 138.626 114.013 138.626 113.539C138.626 113.066 138.239 112.68 137.764 112.68H62.3868C61.9115 112.68 61.5244 113.066 61.5244 113.539C61.5244 114.013 61.9115 114.399 62.3868 114.399Z" fill="#C83722"/>
<path opacity="0.4" d="M62.3868 114.399H137.764C138.239 114.399 138.626 114.013 138.626 113.539C138.626 113.066 138.239 112.68 137.764 112.68H62.3868C61.9115 112.68 61.5244 113.066 61.5244 113.539C61.5244 114.013 61.9115 114.399 62.3868 114.399Z" fill="white"/>
<path opacity="0.3" d="M93.3158 97.3487C93.0953 97.3487 92.8895 97.251 92.7523 97.085C92.6151 96.914 92.5563 96.6942 92.6004 96.4842L92.9042 94.926C92.9875 94.4913 93.3746 94.1738 93.8205 94.1738H106.565C106.786 94.1738 106.992 94.2715 107.129 94.4376C107.266 94.6085 107.325 94.8235 107.281 95.0384L106.977 96.5965C106.894 97.0312 106.507 97.3487 106.061 97.3487H93.3158Z" fill="white"/>
<path d="M106.061 97.1035H93.3161C93.0123 97.1035 92.782 96.825 92.8408 96.5271L93.1446 94.9689C93.2083 94.6466 93.4925 94.4121 93.8208 94.4121H106.566C106.869 94.4121 107.1 94.6905 107.041 94.9885L106.737 96.5466C106.673 96.8739 106.389 97.1035 106.061 97.1035Z" fill="white"/>
<path d="M95.4781 96.1142C95.7278 95.7582 95.7001 95.3093 95.4163 95.1114C95.1324 94.9135 94.6999 95.0416 94.4502 95.3975C94.2005 95.7535 94.2282 96.2024 94.512 96.4003C94.7959 96.5982 95.2284 96.4701 95.4781 96.1142Z" fill="#263238"/>
<path d="M97.6225 95.7605C97.5441 96.1659 97.1766 96.4981 96.8091 96.4981C96.4367 96.4981 96.2015 96.1659 96.2848 95.7605C96.3632 95.3551 96.7307 95.0229 97.0982 95.0229C97.4706 95.0229 97.7058 95.3502 97.6225 95.7605Z" fill="#263238"/>
<path d="M99.6167 95.7605C99.5383 96.1659 99.1708 96.4981 98.8033 96.4981C98.4309 96.4981 98.1957 96.1659 98.279 95.7605C98.3574 95.3551 98.7249 95.0229 99.0924 95.0229C99.4599 95.0229 99.6951 95.3502 99.6167 95.7605Z" fill="#263238"/>
<path d="M101.455 96.1117C101.704 95.7558 101.677 95.3068 101.393 95.1089C101.109 94.9111 100.676 95.0392 100.427 95.3951C100.177 95.751 100.205 96.2 100.489 96.3979C100.772 96.5958 101.205 96.4676 101.455 96.1117Z" fill="#263238"/>
<path d="M103.601 95.7605C103.522 96.1659 103.155 96.4981 102.787 96.4981C102.415 96.4981 102.18 96.1659 102.263 95.7605C102.341 95.3551 102.709 95.0229 103.076 95.0229C103.444 95.0229 103.679 95.3502 103.601 95.7605Z" fill="#263238"/>
<path d="M105.435 96.1151C105.685 95.7592 105.657 95.3103 105.373 95.1124C105.089 94.9145 104.657 95.0426 104.407 95.3985C104.157 95.7544 104.185 96.2034 104.469 96.4013C104.753 96.5992 105.185 96.4711 105.435 96.1151Z" fill="#263238"/>
<path opacity="0.3" d="M107.84 97.3478C107.668 97.3478 107.511 97.2745 107.403 97.1475C107.301 97.0205 107.256 96.8496 107.291 96.6737L107.678 94.7395C107.742 94.4171 108.045 94.1631 108.374 94.1631H110.314C110.486 94.1631 110.642 94.2364 110.75 94.3634C110.853 94.4903 110.897 94.6613 110.863 94.8371L110.476 96.7714C110.412 97.0938 110.108 97.3478 109.78 97.3478H107.84Z" fill="white"/>
<path d="M107.839 97.1035H109.78C109.991 97.1035 110.196 96.9325 110.236 96.7225L110.623 94.7882C110.667 94.5782 110.53 94.4072 110.319 94.4072H108.378C108.168 94.4072 107.962 94.5782 107.923 94.7882L107.536 96.7225C107.496 96.9374 107.629 97.1035 107.839 97.1035Z" fill="#263238"/>
<path d="M108.834 96.6148C108.805 96.6148 108.775 96.6051 108.756 96.5807C108.717 96.5318 108.731 96.4537 108.79 96.4097L109.569 95.7649L109.05 95.1202C109.011 95.0713 109.025 94.9932 109.084 94.9492C109.143 94.9004 109.221 94.9004 109.256 94.9492L109.844 95.6819C109.883 95.7308 109.868 95.8089 109.809 95.8529L108.927 96.5855C108.903 96.6002 108.868 96.6148 108.834 96.6148Z" fill="#C83722"/>
<path d="M109.716 95.8824H108.393C108.325 95.8824 108.281 95.8287 108.295 95.7603C108.31 95.6919 108.374 95.6382 108.442 95.6382H109.765C109.834 95.6382 109.878 95.6919 109.863 95.7603C109.849 95.8238 109.785 95.8824 109.716 95.8824Z" fill="#C83722"/>
<path d="M66.7722 66.0577H77.3366C78.4538 66.0577 79.3554 65.154 79.3554 64.0453V53.5144C79.3554 52.4007 78.4489 51.502 77.3366 51.502H66.7722C65.655 51.502 64.7534 52.4056 64.7534 53.5144V64.0453C64.7534 65.1589 65.655 66.0577 66.7722 66.0577Z" fill="#C83722"/>
<path d="M70.9126 65.5156L72.0543 70.4099L73.196 65.5156H70.9126Z" fill="#C83722"/>
<path opacity="0.3" d="M71.927 63.1466C67.6248 60.5286 67.7032 56.0886 67.7032 56.0446L67.7081 55.8883L72.0544 54.042L76.4007 55.8883L76.4056 56.0446C76.4056 56.0886 76.484 60.5286 72.1818 63.1466L72.0544 63.2248L71.927 63.1466Z" fill="white"/>
<path opacity="0.6" d="M72.0542 54.3057L76.1604 56.0494C76.1604 56.0494 76.2878 60.3624 72.0542 62.9365V54.3057Z" fill="white"/>
<path opacity="0.4" d="M72.0544 54.3057L67.9482 56.0494C67.9482 56.0494 67.8208 60.3624 72.0544 62.9365V54.3057Z" fill="white"/>
<path d="M68.1099 109.49L71.535 110.003C71.535 110.003 72.6963 109.622 73.9262 109.49C75.1561 109.363 76.5771 109.49 76.5771 109.49C76.5771 109.49 78.1255 110.071 78.1255 111.551C78.1255 111.551 74.5093 112.518 73.1177 111.937L68.1099 111.551V109.49Z" fill="#E4897B"/>
<path opacity="0.2" d="M68.1099 109.49L71.535 110.003C71.535 110.003 72.6963 109.622 73.9262 109.49C75.1561 109.363 76.5771 109.49 76.5771 109.49C76.5771 109.49 78.1255 110.071 78.1255 111.551C78.1255 111.551 74.5093 112.518 73.1177 111.937L68.1099 111.551V109.49Z" fill="black"/>
<path d="M76.6068 86.3965C76.6068 86.3965 76.695 87.6225 77.0184 88.4675C77.0184 88.4675 76.4598 88.8387 75.8179 88.4528L76.6068 86.3965Z" fill="#AA473D"/>
<path d="M77.9446 85.4246C77.8123 85.7421 77.5771 85.9423 77.4203 85.8788C77.2635 85.8153 77.239 85.5027 77.3713 85.1901C77.5036 84.8726 77.7388 84.6724 77.8956 84.7359C78.0524 84.7994 78.072 85.1071 77.9446 85.4246Z" fill="#263238"/>
<path d="M78.7479 84.1544C78.7479 84.1544 77.7385 83.5439 76.8369 83.9981" stroke="#263238" stroke-width="0.7247" stroke-miterlimit="10" stroke-linecap="round" stroke-linejoin="round"/>
<path d="M75.6513 89.058C75.5386 89.1947 75.4259 89.3266 75.3083 89.4487C74.5929 90.1863 73.6962 90.6503 72.7652 90.8408C72.5202 90.8897 72.2703 90.9238 72.0204 90.9385C70.7072 91.0069 69.394 90.538 68.4728 89.5269C68.0955 89.1166 67.777 88.6086 67.5614 88.0127C66.6892 85.6682 67.5761 83.8218 68.8305 80.5737C69.0902 79.8703 69.5067 79.2353 70.0555 78.7273C71.9812 76.9299 74.9996 77.0373 76.7979 78.952C79.3361 81.6189 77.6309 86.5181 75.6513 89.058Z" fill="#E4897B"/>
<path opacity="0.2" d="M72.7602 90.8411C72.5152 90.8899 72.2653 90.9241 72.0154 90.9387C70.7022 91.0071 69.389 90.5382 68.4678 89.5271C68.9676 89.0143 69.5213 88.7065 69.5213 88.7065C69.5213 88.7065 71.5548 89.2683 72.7602 90.8411Z" fill="black"/>
<path d="M62.1958 90.9632C62.5143 93.254 67.5319 94.1039 67.5319 94.1039C67.5319 94.1039 70.0064 95.2274 70.1093 94.2505C69.0852 93.0684 68.9725 92.0378 69.3253 91.1342C69.5311 90.6067 69.8986 90.128 70.3347 89.6835C70.5601 89.449 70.81 89.2244 71.0648 89.0094L69.536 82.7476C68.4335 85.1263 64.6654 90.6213 62.1958 90.9632Z" fill="#E4897B"/>
<path d="M76.5135 77.1791C76.5135 77.1791 77.5866 77.0472 78.4049 79.0401C79.0958 80.7203 77.469 81.0818 77.5376 82.8646C77.6062 84.6474 75.9745 85.639 75.9745 85.639C75.9745 85.639 74.5976 86.821 73.4314 86.1812C73.4314 86.1812 71.9026 86.9285 71.5008 88.2326C71.099 89.5368 68.7323 87.1825 66.6008 87.539C66.6008 87.539 65.1602 86.1958 65.2631 82.933C65.3317 80.7789 66.2921 78.8398 66.2921 78.8398C66.2921 78.8398 66.9144 76.8958 69.3497 75.8114C71.7899 74.7222 76.0578 75.5477 76.5135 77.1791Z" fill="#263238"/>
<path d="M73.1372 85.2187C73.0147 85.9905 73.1666 86.6694 73.5537 87.0992C74.078 87.6658 74.911 86.9478 75.2491 85.9563C75.5431 85.0722 75.646 83.6899 74.8816 83.5336C74.1221 83.3773 73.2989 84.2663 73.1372 85.2187Z" fill="#E4897B"/>
<path d="M73.6765 92.8533C72.9758 94.7974 72.3486 96.673 71.7949 98.4705C71.4421 99.5841 71.1187 100.673 70.8198 101.724C70.5699 102.608 70.3396 103.462 70.124 104.293C70.0211 104.693 69.9182 105.089 69.8202 105.48C69.2812 107.634 68.8451 109.597 68.5021 111.326C67.4731 116.475 67.233 119.566 67.233 119.566L48.0005 117.168C48.6669 113.876 49.1863 110.999 49.9115 107.897C50.3133 106.198 50.769 104.43 51.357 102.49C51.7686 101.098 52.2488 99.6183 52.8172 98.0113C54.7478 92.4919 56.5265 90.9631 56.5265 90.9631C63.9255 89.781 73.6765 92.8533 73.6765 92.8533Z" fill="#263238"/>
<path d="M80.0708 109.846L83.4959 110.359C83.4959 110.359 84.6572 109.978 85.8871 109.846C87.117 109.719 88.538 109.846 88.538 109.846C88.538 109.846 90.0864 110.428 90.0864 111.908C90.0864 111.908 86.4702 112.875 85.0786 112.294L80.0708 111.908V109.846Z" fill="#E4897B"/>
<path d="M58.8394 172.988L62.4213 173.052L64.2049 164.816L60.6279 164.758L58.8394 172.988Z" fill="#EBB376"/>
<path opacity="0.2" d="M60.628 164.758L64.205 164.821L63.1858 169.53L59.6431 169.291L60.628 164.758Z" fill="black"/>
<path d="M70.3493 152.834C67.9875 161.783 65.1308 168.191 65.1308 168.191L58.5942 167.693C58.5942 167.693 61.2745 157.255 62.2447 147.691C62.8474 141.791 62.7935 136.906 61.0589 136.525C59.9662 136.286 57.4133 136.296 54.145 136.369V124.221C63.3227 126.102 72.4563 129.643 73.1472 132.486C74.1272 136.486 72.4318 144.956 70.3493 152.834Z" fill="#C83722"/>
<path d="M57.9033 167.996L65.6845 168.514L66.8311 165.158L58.2561 164.758L57.9033 167.996Z" fill="#C83722"/>
<path opacity="0.2" d="M57.9033 167.996L65.6845 168.514L66.8311 165.158L58.2561 164.758L57.9033 167.996Z" fill="white"/>
<path d="M62.96 172.875C62.96 172.88 63.0335 172.88 63.0335 172.885C63.0384 172.9 63.1119 172.91 63.1217 172.919C63.1266 172.929 63.1266 172.939 63.1364 172.944C63.1462 172.949 63.156 172.944 63.1658 172.939C63.4696 173.032 63.7832 173.095 64.0968 173.125C64.332 173.168 64.577 173.12 64.7779 172.993C64.9053 172.88 64.9543 172.7 64.9053 172.534C64.8906 172.426 64.822 172.333 64.724 172.284C64.4937 172.182 64.0821 172.309 63.7342 172.465C63.9547 172.192 64.1164 171.869 64.087 171.649C64.0625 171.503 63.9302 171.395 63.7832 171.381C63.6558 171.356 63.4892 171.391 63.3863 171.474C63.0139 171.796 62.9551 172.802 62.9551 172.866C62.96 172.866 62.96 172.871 62.96 172.875C62.96 172.871 62.96 172.871 62.96 172.875C62.96 172.871 62.96 172.875 62.96 172.875ZM63.3471 172.665C63.3177 172.68 63.2981 172.695 63.2736 172.704C63.2883 172.367 63.352 171.801 63.5774 171.615C63.6264 171.571 63.695 171.547 63.7587 171.552L63.7979 171.557C63.9155 171.576 63.9449 171.64 63.9498 171.688C63.9645 171.928 63.6509 172.407 63.3471 172.665ZM63.3961 172.846C63.8273 172.607 64.4398 172.348 64.6701 172.455C64.7191 172.48 64.7534 172.524 64.7583 172.577C64.7877 172.68 64.7583 172.792 64.6799 172.871C64.4986 173.017 64.0282 173.007 63.3961 172.846Z" fill="#C83722"/>
<path d="M62.8768 172.436L58.8686 172.187C58.7314 172.172 58.604 172.275 58.5893 172.412V172.417L58.1973 175.572C58.1777 175.919 58.4374 176.217 58.7804 176.241C60.1818 176.305 60.8531 176.265 62.6171 176.363C63.7 176.427 65.8364 176.656 67.3309 176.515C68.8254 176.368 68.6441 174.903 67.9973 174.829C66.4685 174.654 64.4399 173.535 63.4844 172.685C63.308 172.534 63.0973 172.451 62.8768 172.436Z" fill="#263238"/>
<path opacity="0.2" d="M70.3493 152.834C67.9091 151.296 65.0524 149.484 62.2496 147.691C62.8523 141.791 62.7984 136.906 61.0638 136.525C59.9711 136.286 57.4182 136.296 54.1499 136.369V124.221C63.3276 126.102 72.4612 129.643 73.1521 132.486C74.1272 136.486 72.4318 144.956 70.3493 152.834Z" fill="black"/>
<path d="M79.7817 172.988L83.3587 173.052L85.1423 164.816L81.5653 164.758L79.7817 172.988Z" fill="#EBB376"/>
<path opacity="0.2" d="M81.5655 164.758L85.1424 164.821L84.1233 169.53L80.5806 169.291L81.5655 164.758Z" fill="black"/>
<path d="M66.7723 123.029L67.3505 118.419L48.6472 115.351C48.6472 115.351 42.532 127.43 45.5259 133.355C48.2748 138.787 77.5082 135.553 82.0064 136.53C86.5536 137.522 79.5368 167.693 79.5368 167.693L86.0734 168.191C86.0734 168.191 96.1723 141.034 94.0947 132.491C93.1882 128.759 77.7777 123.826 66.7723 123.029Z" fill="#C83722"/>
<path d="M78.8408 167.996L86.622 168.514L87.7686 165.158L79.1936 164.758L78.8408 167.996Z" fill="#C83722"/>
<path opacity="0.2" d="M78.8408 167.996L86.622 168.514L87.7686 165.158L79.1936 164.758L78.8408 167.996Z" fill="white"/>
<path d="M83.8975 172.875C83.8975 172.88 83.971 172.88 83.971 172.885C83.9759 172.9 84.0494 172.91 84.0592 172.919C84.0641 172.929 84.0641 172.939 84.0739 172.944C84.0837 172.949 84.0935 172.944 84.1033 172.939C84.4071 173.032 84.7207 173.095 85.0343 173.125C85.2695 173.168 85.5145 173.12 85.7154 172.993C85.8428 172.88 85.8918 172.7 85.8428 172.534C85.8281 172.426 85.7595 172.333 85.6615 172.284C85.4312 172.182 85.0196 172.309 84.6717 172.465C84.8922 172.192 85.0539 171.869 85.0245 171.649C85 171.503 84.8677 171.395 84.7207 171.381C84.5933 171.356 84.4267 171.391 84.3238 171.474C83.9514 171.796 83.8926 172.802 83.8926 172.866C83.8975 172.866 83.8975 172.871 83.8975 172.875C83.8975 172.871 83.8975 172.871 83.8975 172.875C83.8975 172.871 83.8975 172.875 83.8975 172.875ZM84.2846 172.665C84.2552 172.68 84.2356 172.695 84.2111 172.704C84.2258 172.367 84.2895 171.801 84.5149 171.615C84.5639 171.571 84.6325 171.547 84.6962 171.552L84.7354 171.557C84.853 171.576 84.8824 171.64 84.8873 171.688C84.9069 171.928 84.5884 172.407 84.2846 172.665ZM84.3336 172.846C84.7648 172.607 85.3773 172.348 85.6076 172.455C85.6566 172.48 85.6909 172.524 85.6958 172.577C85.7252 172.68 85.6958 172.792 85.6174 172.871C85.4361 173.017 84.9657 173.007 84.3336 172.846Z" fill="#C83722"/>
<path d="M83.8143 172.436L79.8061 172.187C79.6689 172.172 79.5415 172.275 79.5268 172.412V172.417L79.1348 175.572C79.1152 175.919 79.3749 176.217 79.7179 176.241C81.1193 176.305 81.7906 176.265 83.5546 176.363C84.6375 176.427 86.7739 176.656 88.2684 176.515C89.7629 176.368 89.5816 174.903 88.9348 174.829C87.406 174.654 85.3774 173.535 84.4219 172.685C84.2455 172.534 84.0348 172.451 83.8143 172.436Z" fill="#263238"/>
<path d="M47.9614 117.447L56.6246 118.58L56.9088 117.305L48.226 116.045L47.9614 117.447Z" fill="black"/>
<path d="M57.6293 117.31L57.5215 118.58L65.533 119.674V118.424L57.6293 117.31Z" fill="black"/>
<path d="M66.0278 118.492V119.674L67.194 119.831V118.688L66.0278 118.492Z" fill="black"/>
<path opacity="0.2" d="M71.7946 98.4702C71.4418 99.5838 71.1184 100.673 70.8195 101.723C70.5696 102.607 70.3393 103.462 70.1237 104.292C69.521 101.02 70.6137 97.1123 70.6137 97.1123L71.7946 98.4702Z" fill="black"/>
<path d="M73.6766 92.8486C75.2397 93.1661 75.7591 105.275 75.8228 106.559C75.8865 107.849 83.4962 110.355 83.4962 110.355V112.118C83.4962 112.118 75.3426 111.551 73.4365 110.775C71.5353 109.998 71.0698 98.7637 71.0698 98.7637L73.6766 92.8486Z" fill="#E4897B"/>
<path d="M73.6765 92.8486C75.1122 93.2931 75.8227 101.279 75.8227 101.279L71.3833 103.062L70.2808 98.6221C70.2808 98.6221 69.9672 97.7184 70.5846 95.8135C71.4813 93.0587 73.6765 92.8486 73.6765 92.8486Z" fill="#263238"/>
<path d="M79.8403 138.577H36.686V136.511C36.686 134.376 38.4206 132.647 40.5619 132.647H75.9644C78.1057 132.647 79.8403 134.376 79.8403 136.511V138.577Z" fill="#C83722"/>
<path d="M52.0723 117.959H75.8324C77.0525 117.959 77.959 119.093 77.6846 120.28L73.4363 138.577H72.4563L76.0774 122.541C76.3469 121.359 75.4404 120.231 74.2252 120.231H52.5623L52.0723 117.959Z" fill="#263238"/>
<path d="M61.0685 139.217V154.676C61.0685 155.174 60.6618 155.575 60.1669 155.575H56.3645C55.8647 155.575 55.4629 155.174 55.4629 154.676V139.217H61.0685Z" fill="#263238"/>
<path d="M40.077 174.912C40.077 174.004 39.3371 173.271 38.4306 173.271C37.5192 173.271 36.7842 174.009 36.7842 174.912C36.7842 175.821 37.5241 176.553 38.4306 176.553C39.342 176.558 40.077 175.821 40.077 174.912Z" fill="#263238"/>
<path opacity="0.2" d="M39.2538 174.912C39.2538 174.458 38.8863 174.091 38.4306 174.091C37.9749 174.091 37.6074 174.458 37.6074 174.912C37.6074 175.366 37.9749 175.732 38.4306 175.732C38.8863 175.732 39.2538 175.366 39.2538 174.912Z" fill="white"/>
<path d="M79.7425 174.912C79.7425 174.004 79.0026 173.271 78.0961 173.271C77.1896 173.271 76.4497 174.009 76.4497 174.912C76.4497 175.821 77.1896 176.553 78.0961 176.553C79.0026 176.553 79.7425 175.821 79.7425 174.912Z" fill="#263238"/>
<path opacity="0.2" d="M78.9193 174.912C78.9193 174.458 78.5519 174.091 78.0962 174.091C77.6405 174.091 77.2729 174.458 77.2729 174.912C77.2729 175.366 77.6405 175.732 78.0962 175.732C78.5519 175.732 78.9193 175.366 78.9193 174.912Z" fill="white"/>
<path d="M59.6231 167.708V150.036H56.8987V167.708C46.2853 167.981 39.832 171.679 38.5433 172.49C38.3914 172.582 38.3032 172.748 38.3032 172.929V174.399C38.3032 174.688 38.5384 174.917 38.8226 174.917C39.0088 174.917 39.1803 174.819 39.2734 174.653L39.9055 173.554C39.9055 173.554 47.2065 170.961 56.8987 170.751V173.657C56.8987 174.028 57.2025 174.331 57.5749 174.331H58.9518C59.3242 174.331 59.628 174.028 59.628 173.657V170.751C69.3202 170.961 76.6212 173.554 76.6212 173.554L77.2533 174.653C77.3464 174.815 77.5179 174.917 77.7041 174.917C77.9932 174.917 78.2235 174.683 78.2235 174.399V172.929C78.2235 172.753 78.1353 172.587 77.9834 172.49C76.6898 171.679 70.2414 167.976 59.6231 167.708Z" fill="#263238"/>
<path d="M59.1576 173.271H57.3691V176.558H59.1576V173.271Z" fill="#263238"/>
<path opacity="0.2" d="M61.0685 139.217H55.4629V145.64H61.0685V139.217Z" fill="black"/>
<path d="M81.0215 137.624V139.471C81.0215 139.993 80.5951 140.413 80.0708 140.413H36.456C35.9317 140.413 35.5103 139.993 35.5103 139.471V137.624C35.5103 137.107 35.9317 136.682 36.456 136.682H80.0708C80.5951 136.682 81.0215 137.107 81.0215 137.624Z" fill="#263238"/>
<path d="M60.956 138.577H35.5103C35.5103 138.577 27.4253 125.174 27.4253 103.028V94.8951C27.4253 91.5541 30.1448 88.8433 33.5013 88.8433H44.2911C47.579 88.8433 50.2691 91.4467 50.3622 94.7242C50.6758 106.134 52.3614 130.845 60.956 138.577Z" fill="#263238"/>
<path opacity="0.2" d="M55.3553 138.577H36.6569C35.9317 138.577 35.2702 138.181 34.937 137.541C33.0946 134.005 27.4204 121.584 27.4204 103.028V94.8951C27.4204 91.5541 30.1399 88.8433 33.4915 88.8433H42.8162C46.1041 88.8433 48.7942 91.4467 48.8873 94.7242C49.1666 104.918 50.5435 125.726 56.9625 135.563C57.8102 136.862 56.9086 138.577 55.3553 138.577Z" fill="white"/>
<path opacity="0.2" d="M81.0217 137.624V139.471C81.0217 139.993 80.6003 140.413 80.076 140.413H60.5299C59.8243 140.413 59.251 139.842 59.251 139.139V137.956C59.251 137.253 59.8243 136.682 60.5299 136.682H80.0711C80.5954 136.682 81.0217 137.107 81.0217 137.624Z" fill="black"/>
<path d="M35.5005 88.1252L37.1175 86.0151C37.1175 86.0151 44.0265 86.3277 44.1882 88.8432C44.3548 91.3587 35.5005 88.1252 35.5005 88.1252Z" fill="#C83722"/>
<path d="M30.9631 94.4409C30.9631 94.4409 31.3845 105.621 30.9631 134.498C30.9484 135.47 27.3077 135.441 27.0529 134.498C26.1758 131.211 27.0529 104.962 27.0529 104.962" fill="#C83722"/>
<path d="M27.1265 134.64L30.8456 134.767V136.618L27.1265 136.428V134.64Z" fill="#C83722"/>
<path opacity="0.2" d="M30.9631 94.4409C30.9631 94.4409 31.3845 105.621 30.9631 134.498C30.9484 135.47 27.3077 135.441 27.0529 134.498C26.1758 131.211 27.0529 104.962 27.0529 104.962" fill="white"/>
<path d="M25.2888 128.588C25.0879 123.269 24.3578 98.7979 27.4203 90.6897C27.4203 90.6897 30.3064 87.0361 40.077 87.0361C49.8476 87.0361 52.7827 93.9476 52.7827 93.9476C52.7827 93.9476 53.2041 105.128 52.7827 134.005C52.768 134.977 49.1273 134.948 48.8774 134.005C48.0003 130.718 48.8774 104.469 48.8774 104.469L46.9223 128.349C46.8929 128.686 46.5842 128.935 46.2461 128.881C43.164 128.408 29.5714 126.493 25.9944 128.935C25.7004 129.135 25.3035 128.945 25.2888 128.588Z" fill="#C83722"/>
<path d="M48.9458 134.146L52.6649 134.273V136.125L48.9458 135.934V134.146Z" fill="#C83722"/>
<path d="M46.4274 128.906L46.1334 130.855C46.1334 130.855 30.9777 127.558 26.0679 131.07L25.7788 128.906C25.7739 128.906 29.5665 125.423 46.4274 128.906Z" fill="#C83722"/>
<path opacity="0.4" d="M25.2888 128.588C25.0879 123.269 24.3578 98.7979 27.4203 90.6897C27.4203 90.6897 30.3064 87.0361 40.077 87.0361C49.8476 87.0361 52.7827 93.9476 52.7827 93.9476C52.7827 93.9476 53.2041 105.128 52.7827 134.005C52.768 134.977 49.1273 134.948 48.8774 134.005C48.0003 130.718 48.8774 104.469 48.8774 104.469L46.9223 128.349C46.8929 128.686 46.5842 128.935 46.2461 128.881C43.164 128.408 29.5714 126.493 25.9944 128.935C25.7004 129.135 25.3035 128.945 25.2888 128.588Z" fill="white"/>
<path opacity="0.2" d="M48.8776 104.464C48.8776 104.464 49.0932 96.8828 52.7829 93.9424C52.7829 93.9473 48.1671 95.9255 48.8776 104.464Z" fill="black"/>
<path opacity="0.2" d="M37.7645 87.9102C37.7645 87.9102 33.3055 90.3329 32.595 123.63C32.595 123.63 30.6546 90.0593 37.7645 87.9102Z" fill="black"/>
</svg>
