<svg width="66" height="72" viewBox="0 0 66 72" fill="none" xmlns="http://www.w3.org/2000/svg">
<path fill-rule="evenodd" clip-rule="evenodd" d="M32.7343 71.82C23.3387 71.757 14.9973 68.637 7.54032 62.955C4.89044 60.9249 2.45007 58.6314 0.256109 56.109C0.175702 56.019 0.0416922 55.935 0.0327582 55.839C1.10939e-07 55.488 0.00893403 55.137 0 54.789C0.297801 54.837 0.649206 54.798 0.887447 54.948C2.88271 56.199 4.80055 57.582 6.84346 58.74C12.7244 62.0789 19.1613 64.3075 25.8372 65.316C29.3513 65.856 32.8802 66.036 36.4091 65.826C43.1005 65.4263 49.6553 63.7485 55.7245 60.882C56.6924 60.429 57.6423 59.934 58.5953 59.445C59.0539 59.208 59.5096 59.112 59.8997 59.529C60.3136 59.967 60.2957 60.495 60.0069 60.984C59.8431 61.266 59.59 61.506 59.3458 61.728C53.8632 66.627 47.4486 69.636 40.2984 71.037C37.8207 71.52 35.2835 71.688 32.773 72L32.7343 71.82ZM59.2088 56.535C57.8508 56.667 56.3469 56.817 54.84 56.955C54.5125 56.985 54.173 57.006 53.8454 56.985C53.4642 56.961 53.4046 56.727 53.6131 56.445C53.7508 56.2826 53.9137 56.1438 54.0955 56.034C55.6917 54.957 57.4934 54.486 59.3636 54.234C61.1252 53.9766 62.92 54.0745 64.6436 54.522C65.817 54.84 66.0731 54.981 65.9837 56.352C65.7515 59.97 64.596 63.261 61.9932 65.901C61.8592 66.039 61.7341 66.213 61.5674 66.279C61.347 66.366 61.0909 66.363 60.8526 66.399C60.8586 66.18 60.8139 65.943 60.8794 65.742C61.4989 63.84 62.1481 61.947 62.7645 60.042C62.8896 59.661 62.9372 59.25 62.9819 58.851C63.1338 57.567 62.6246 56.922 61.2725 56.721C60.6412 56.631 60.0009 56.604 59.2088 56.535ZM38.7052 28.2601C36.1441 28.2451 33.7021 28.3561 31.3614 29.1481C30.2059 29.5381 29.0356 30.0331 28.0409 30.7291C25.2922 32.6461 24.5775 35.4991 24.8038 38.6791C24.923 40.3651 25.4262 41.9251 26.6591 43.1461C28.4102 44.8801 31.3614 45.1081 33.7289 43.6981C35.7927 42.4681 37.0256 40.5721 37.8237 38.3611C39 35.1061 38.6278 31.7131 38.7052 28.2601ZM40.5873 47.319C39.6671 48.159 38.8183 48.954 37.9547 49.731C34.6253 52.713 30.6943 54.045 26.2809 54.132C23.8836 54.183 21.528 54 19.2856 53.106C15.2891 51.516 12.7429 48.576 11.7095 44.4001C10.426 39.2161 10.8578 34.2241 13.9043 29.6941C16.1557 26.3461 19.4107 24.3541 23.1659 23.1361C26.3941 22.0861 29.7324 21.6301 33.0827 21.2521C34.9231 21.0421 36.7635 20.8621 38.6933 20.6551C38.6337 18.3361 38.9613 16.0051 38.1543 13.7641C37.4366 11.7781 35.9207 10.7551 33.9433 10.2991C30.9445 9.60911 27.5496 10.7341 25.9385 13.1131C25.3905 13.9231 25.057 14.9041 24.7621 15.8521C24.3482 17.1871 23.7407 17.6221 22.3648 17.4571C19.6787 17.1361 16.9836 16.8691 14.2944 16.5511C12.9633 16.3951 12.4362 15.6301 12.6953 14.3251C13.8775 8.38511 17.2903 4.23612 22.8503 2.05512C29.4049 -0.524871 36.1084 -0.725871 42.7553 1.73712C48.2646 3.77712 51.2873 7.84211 51.6893 13.7761C51.8263 15.7801 51.8442 17.7961 51.8531 19.8031C51.8739 24.9991 51.9007 30.1951 51.8442 35.3911C51.8144 38.2861 52.6125 40.8511 54.3576 43.1371C54.7775 43.6861 55.2034 44.2381 55.5577 44.829C56.1474 45.81 55.9895 46.554 55.1378 47.295C52.943 49.203 50.7542 51.114 48.5624 53.028C47.3593 54.084 46.5225 54.069 45.3104 53.04C43.7394 51.6813 42.3774 50.095 41.2692 48.333C41.0638 48.012 40.8464 47.703 40.5873 47.319Z" fill="black"/>
</svg>
